<mxfile host="app.diagrams.net" modified="2022-10-28T05:20:58.587Z" agent="5.0 (Macintosh; Intel Mac OS X 10_15_7) AppleWebKit/537.36 (KHTML, like Gecko) Chrome/105.0.0.0 Safari/537.36" etag="memdvtStTZ7N4E9LiNiv" version="20.4.0" type="github">
  <diagram id="RHu95Vf85EczBPkQdt_N" name="Page-1">
    <mxGraphModel dx="1298" dy="774" grid="1" gridSize="10" guides="1" tooltips="1" connect="1" arrows="1" fold="1" page="1" pageScale="1" pageWidth="827" pageHeight="1169" math="0" shadow="0">
      <root>
        <mxCell id="0" />
        <mxCell id="1" parent="0" />
        <mxCell id="crt93_arKYEX9t0oyym4-7" value="" style="edgeStyle=orthogonalEdgeStyle;rounded=0;orthogonalLoop=1;jettySize=auto;html=1;startArrow=none;" edge="1" parent="1" source="crt93_arKYEX9t0oyym4-1" target="crt93_arKYEX9t0oyym4-3">
          <mxGeometry relative="1" as="geometry">
            <mxPoint x="220" y="320" as="sourcePoint" />
            <Array as="points">
              <mxPoint x="220" y="310" />
              <mxPoint x="220" y="310" />
            </Array>
          </mxGeometry>
        </mxCell>
        <mxCell id="crt93_arKYEX9t0oyym4-8" value="" style="edgeStyle=orthogonalEdgeStyle;rounded=0;orthogonalLoop=1;jettySize=auto;html=1;" edge="1" parent="1" source="crt93_arKYEX9t0oyym4-3" target="crt93_arKYEX9t0oyym4-4">
          <mxGeometry relative="1" as="geometry" />
        </mxCell>
        <mxCell id="crt93_arKYEX9t0oyym4-3" value="m0" style="rounded=1;whiteSpace=wrap;html=1;" vertex="1" parent="1">
          <mxGeometry x="160" y="380" width="120" height="60" as="geometry" />
        </mxCell>
        <mxCell id="crt93_arKYEX9t0oyym4-4" value="d0,ed0,pd0" style="rounded=1;whiteSpace=wrap;html=1;" vertex="1" parent="1">
          <mxGeometry x="160" y="480" width="120" height="60" as="geometry" />
        </mxCell>
        <mxCell id="crt93_arKYEX9t0oyym4-13" style="edgeStyle=orthogonalEdgeStyle;rounded=0;orthogonalLoop=1;jettySize=auto;html=1;" edge="1" parent="1" source="crt93_arKYEX9t0oyym4-5" target="crt93_arKYEX9t0oyym4-11">
          <mxGeometry relative="1" as="geometry" />
        </mxCell>
        <mxCell id="crt93_arKYEX9t0oyym4-5" value="s1" style="rounded=1;whiteSpace=wrap;html=1;" vertex="1" parent="1">
          <mxGeometry x="340" y="240" width="120" height="60" as="geometry" />
        </mxCell>
        <mxCell id="crt93_arKYEX9t0oyym4-1" value="s0" style="rounded=1;whiteSpace=wrap;html=1;" vertex="1" parent="1">
          <mxGeometry x="160" y="240" width="120" height="60" as="geometry" />
        </mxCell>
        <mxCell id="crt93_arKYEX9t0oyym4-9" value="" style="edgeStyle=orthogonalEdgeStyle;rounded=0;orthogonalLoop=1;jettySize=auto;html=1;endArrow=none;" edge="1" parent="1" target="crt93_arKYEX9t0oyym4-1">
          <mxGeometry relative="1" as="geometry">
            <mxPoint x="220" y="320" as="sourcePoint" />
            <mxPoint x="220" y="380" as="targetPoint" />
          </mxGeometry>
        </mxCell>
        <mxCell id="crt93_arKYEX9t0oyym4-10" style="edgeStyle=orthogonalEdgeStyle;rounded=0;orthogonalLoop=1;jettySize=auto;html=1;exitX=0.5;exitY=1;exitDx=0;exitDy=0;" edge="1" parent="1" source="crt93_arKYEX9t0oyym4-5" target="crt93_arKYEX9t0oyym4-5">
          <mxGeometry relative="1" as="geometry" />
        </mxCell>
        <mxCell id="crt93_arKYEX9t0oyym4-16" value="" style="edgeStyle=orthogonalEdgeStyle;rounded=0;orthogonalLoop=1;jettySize=auto;html=1;" edge="1" parent="1" source="crt93_arKYEX9t0oyym4-11" target="crt93_arKYEX9t0oyym4-12">
          <mxGeometry relative="1" as="geometry" />
        </mxCell>
        <mxCell id="crt93_arKYEX9t0oyym4-11" value="m1" style="rounded=1;whiteSpace=wrap;html=1;" vertex="1" parent="1">
          <mxGeometry x="340" y="380" width="120" height="60" as="geometry" />
        </mxCell>
        <mxCell id="crt93_arKYEX9t0oyym4-12" value="d1,ed1,pd1" style="rounded=1;whiteSpace=wrap;html=1;" vertex="1" parent="1">
          <mxGeometry x="340" y="480" width="120" height="60" as="geometry" />
        </mxCell>
        <mxCell id="crt93_arKYEX9t0oyym4-15" value="" style="endArrow=classic;html=1;rounded=0;exitX=0;exitY=1;exitDx=0;exitDy=0;entryX=0.75;entryY=0;entryDx=0;entryDy=0;" edge="1" parent="1" source="crt93_arKYEX9t0oyym4-5" target="crt93_arKYEX9t0oyym4-3">
          <mxGeometry width="50" height="50" relative="1" as="geometry">
            <mxPoint x="390" y="420" as="sourcePoint" />
            <mxPoint x="440" y="370" as="targetPoint" />
          </mxGeometry>
        </mxCell>
      </root>
    </mxGraphModel>
  </diagram>
</mxfile>
